<?xml version="1.0" encoding="utf-8"?>
<!-- Generator: Adobe Illustrator 21.0.0, SVG Export Plug-In . SVG Version: 6.00 Build 0)  -->
<svg version="1.1" id="Layer_1" xmlns="http://www.w3.org/2000/svg" xmlns:xlink="http://www.w3.org/1999/xlink" x="0px" y="0px"
	 viewBox="0 0 238 243" style="enable-background:new 0 0 238 243;" xml:space="preserve">
<style type="text/css">
	.st0{fill:#4D4D4D;}
</style>
<g>
	<path class="st0" d="M117,39V0c-0.2,0-0.3,0-0.5,0C61.2,0,14.6,36.9-0.1,87.4l37.6,11C47.6,64.1,79.4,39,117,39z"/>
</g>
<g>
	<path class="st0" d="M117,205c-31,0-57.9-17-72.2-42.1l-33.5,19.4c21,36.3,60.3,60.7,105.2,60.7c9.9,0,19.6-1.2,28.8-3.5l-9-36.8
		C130.1,204.2,123.7,205,117,205z"/>
</g>
<g>
	<path class="st0" d="M238,121.5c0-32.6-12.9-62.3-33.8-84.1l-27.6,26.8C191.1,79.2,200,99.5,200,122c0,15.4-4.2,29.7-11.5,42.1
		l32.8,18.9C231.9,165,238,143.9,238,121.5z"/>
</g>
</svg>
